<?xml version="1.0" encoding="utf-8"?>
<!-- Generator: Adobe Illustrator 27.9.6, SVG Export Plug-In . SVG Version: 9.03 Build 54986)  -->
<svg version="1.1" id="Layer_1" xmlns="http://www.w3.org/2000/svg" xmlns:xlink="http://www.w3.org/1999/xlink" x="0px" y="0px"
	 viewBox="0 0 32 32" style="enable-background:new 0 0 32 32;" xml:space="preserve">
<style type="text/css">
	.st0{fill:rgba(158, 187 ,22, 0);}
	.st1{fill:rgba(158, 187 ,22, 1);}
</style>
<path class="st0" d="M3.3,14.5c2.1,0,2.4-1.2,2.4-2.3c0-0.9-0.1-1.7-0.1-2.6S5.4,7.7,5.4,7c0-3.2,1.8-4.6,4.7-4.6h1.1v2.9h-0.6
	c-1.4,0-1.8,0.9-1.8,2.5C8.8,8.4,9,9,9,9.7c0,0.6,0.1,1.4,0.1,2.3c0,2.6-1,3.6-2.6,4c1.7,0.5,2.6,1.4,2.6,4C9.1,21,9,21.8,9,22.4
	s-0.1,1.4-0.1,1.9c0,1.5,0.4,2.5,1.8,2.5h0.6v2.9h-1.1c-2.8,0-4.6-1.2-4.6-4.6c0-0.9,0-1.7,0.1-2.6s0.1-1.9,0.1-2.6
	c0-0.9-0.3-2.3-2.4-2.3C3.4,17.5,3.3,14.5,3.3,14.5z"/>
<path class="st1" d="M28.8,17.3c-1.8,0-2.1,1.4-2.1,2.3s0.1,1.7,0.1,2.7c0.1,0.9,0.1,1.9,0.1,2.7c0,3.4-1.7,4.7-4.2,4.7h-1V27h0.5
	c1.2,0,1.6-0.9,1.6-2.5c0-0.6,0-1.2-0.1-1.9c0-0.8-0.1-1.6-0.1-2.3c0-2.7,0.9-3.6,2.3-4.1c-1.5-0.5-2.3-1.4-2.3-4.1
	c0-0.9,0.1-1.7,0.1-2.3c0.1-0.8,0.1-1.4,0.1-2c0-1.6-0.5-2.3-1.6-2.5h-0.5v-3h1c2.6,0,4.2,1.4,4.2,4.7c0,0.9-0.1,1.7-0.1,2.7
	c-0.1,0.9-0.1,1.9-0.1,2.7c0,1.1,0.2,2.3,2.1,2.3C28.8,14.7,28.8,17.3,28.8,17.3z"/>
</svg>
