<?xml version="1.0" encoding="utf-8"?>
<!-- Generator: Adobe Illustrator 26.3.1, SVG Export Plug-In . SVG Version: 6.00 Build 0)  -->
<svg version="1.1" xmlns="http://www.w3.org/2000/svg" xmlns:xlink="http://www.w3.org/1999/xlink" x="0px" y="0px"
	 viewBox="0 0 400 150" style="enable-background:new 0 0 400 150;" xml:space="preserve">
<link
    xmlns="http://www.w3.org/1999/xhtml"
    rel="stylesheet"
    href="integrated-styles.css"
    type="text/css" />
<style type="text/css">
	.st0{display:none;}
	:root{ --first:rgba( 057,120,121,1); --second:rgba(158, 187 ,22, 0.5); --third:rgba(155, 155, 155, 0.5); --fourth:rgba(255,0,0,0.7); }
	.st2{ fill:var(--first); }
	.st3{ fill:var(--second); }
	.st4{ stroke:var(--fourth); }
</style>
<script></script>
<g id="mat" class="st0">
	<rect x="8" y="-12" class="st1" width="384" height="224"/>
</g>
<defs>
<g id="logo" class="waves">
	<path id="bottom_Arc" class="st2" d="M28.47,124.45c0,0,75.03-46.62,161.77-49.47c86.75-2.84,138.33,10.81,183.47,38.66
		c0,0-86.75-59.69-171.74-56.85C116.98,59.63,65.4,90.33,28.47,124.45z"/>
	<path id="Top_arc" class="st3" d="M48.47,105.98c0,0,49.83-40.57,55.69-43.86c5.86-3.29,40.44-26.86,66.82-24.67
		c26.38,2.19,38.1,18.64,41.62,24.12c3.51,5.49,29.9,37.42,47.9,44.92c16.61,6.92,44.71,10.45,44.71,10.45s-30.67-8.34-52.75-26.87
		c-20.96-17.59-32.24-50.43-36.35-57.01c-4.1-6.58-21.68-25.22-48.06-17.54C141.67,23.21,99.47,59.39,48.47,105.98z"/>
</g>
</defs>
<g id="folder" stroke-width="20">
	<path id="folderOutline" class="st4" d="
		M 0 0 M 25 140 L 375, 140
	" />
</g>

	<use href="#logo" x="0" y="-10" />

</svg>
