<svg xmlns="http://www.w3.org/2000/svg" version="1.0" viewBox="0 0 900 600" width="900" heigth="600" id="musical" standalone="yes">
    <metadata>
    created by SKOG 
    </metadata>
    <desc>
    try - automation
    </desc>
    <link
        xmlns="http://www.w3.org/1999/xhtml"
        rel="stylesheet"
        href="integrated-styles.css"
        type="text/css" />
    <script>
        //the bars are first silent
        //the scewered tilt is Toby's 2 o'clock position.
    </script>
    <style>

    </style>
    <filter id="f1">

    </filter>
        <desc> bar </desc>
    <g class="sheet" id="bar" fill="" stroke="#f5f8e7" stroke-width="2mm" >
        <path class="" id="clef bar" d="
            M 0 0
            m 0,0 
            l 0,600
        z "/>
    <g class="staff" id="" fill="" stroke="#f5f8e733" stroke-width="1mm" >
        <path class="staff" id="" d="
            M 0 0
            M 0 100 L 900 100 Z
            M 0 200 L 900 200 Z
            M 0 300 L 900 300 Z
            M 0 400 L 900 400 Z
            M 0 500 L 900 500 Z
        " />
        <path class="staff" id="time" d="
            M 0 0
            M 225 000 L 225 600 Z
            M 450 000 L 450 600 Z
            M 675 000 L 675 600 Z
        " />
    <g class="note" id="" fill="#f5f8e7ff" stroke="#f5f8e7ff" stroke-width="" >
    <path class="note" id="whole" d="
            M 450 350
            m -180,0
            a 180, 120 0, 0, 0, 360, 0
            a 180, 120 0, 0, 0, -360, 0
            M 380 350
            m -20,0
            a 60, 40 45, 0, 0, 180, 0
            a 60, 40 45, 0, 0, -180, 0
        z" fill="#f5f8e700" stroke="#f5f8e700" stroke-width="2mm"  fill-rule="evenodd" transform="" />
        <path class="note" id="1/2" d="
            M 560 1130
            m -180,0
            a 180, 120 0, 0, 0, 360, 0
            a 180, 120 0, 0, 0, -360, 0
            M 490 1130
            m -20,0
            a 60, 40 45, 0, 0, 180, 0
            a 60, 40 45, 0, 0, -180, 0
        z" fill="#f5f8e700" stroke="#f5f8e700" stroke-width="2mm"  fill-rule="evenodd" transform="scale(.4)" />
        <path class="note" id="half" d="
            M 292 450 L 292 100 Z
        " fill="#f5f8e700" stroke="#f5f8e700" stroke-width="2mm" />
        <path class="note" id="2" d="
            M 1690 1130
            m -180 0
        z " />
        <path class="note" id="1/4" d="
            M 1690 1130
            m -180,0
            a 180, 120 0, 0, 0, 360, 0
            a 180, 120 0, 0, 0, -360, 0
            M 1620 1130
            m -20,0
            a 60, 40 45, 0, 0, 180, 0
            a 60, 40 45, 0, 0, -180, 0
        z" fill="#f5f8e7ff" stroke="#f5f8e700" stroke-width="2mm"  fill-rule="even" transform="scale(.4)" />
        <path class="note" id="quarter" d="
            M 743 450 L 745 100 Z
        " fill="#f5f8e700" stroke="#f5f8e7ff" stroke-width="2mm" />
        <path class="note" id="hold" d="
            M 450 128.3 L 742 128.3 Z
        " stroke-width="15mm" />
        <path class="note" id="1/8" d="
            M 955 1130
            m -180,0
            a 180, 120 0, 0, 0, 360, 0
            a 180, 120 0, 0, 0, -360, 0
            M 885 1130
            m -20,0
            a 60, 40 45, 0, 0, 180, 0
            a 60, 40 45, 0, 0, -180, 0
        z" fill="#f5f8e7ff" stroke="#f5f8e700" stroke-width="2mm"  fill-rule="even" transform="scale(.4)" />
        <path class="note" id="eight" d="
            M 450 450 L 450 100 Z
        " fill="#f5f8e700" stroke="#f5f8e7ff" stroke-width="2mm" />
        <path class="note" id="8" d="
            M 446 200
            l 0 -100
            a 30 50 0 0 1 56.5 200
            a 25.125 56.25 0 0 0 -56.25 -100 z
        " fill="#f5f8e700" stroke="#f5f8e700" fill-rule="evenodd" />
        <path class="note" id="1/16" d="
            M 955 1130
            m -180,0
            a 180, 120 0, 0, 0, 360, 0
            a 180, 120 0, 0, 0, -360, 0
            M 885 1130
            m -20,0
            a 60, 40 45, 0, 0, 180, 0
            a 60, 40 45, 0, 0, -180, 0
        z" fill="#f5f8e700" stroke="#f5f8e700" stroke-width="2mm"  fill-rule="even" transform="scale(.4)" />
        <path class="note" id="sixtenth" d="
            M 450 450 L 450 100 Z
        " fill="#f5f8e700" stroke="#f5f8e700" stroke-width="2mm" />
        <path class="note" id="1/16" d="
            M 450 200
            l 0 -100
            a 30 50 0 0 1 56.5 200
            a 25.125 56.25 0 0 0 -56.25 -100 z
        " fill="#f5f8e700" stroke="#f5f8e700" fill-rule="evenodd" />
        <path class="note" id="2/16" d="
            M 450 300
            l 0 -100
            a 30 50 0 0 1 56.5 200
            a 25.125 56.25 0 0 0 -56.25 -100 z
        " fill="#f5f8e700" stroke="#f5f8e700" fill-rule="evenodd" />
    </g>
    </g>
        <path class="" id="first bar" d="
            M 900 0
            L 900,600
        z "/>
    </g>
</svg>