<?xml version="1.0" encoding="utf-8"?>
<!-- Generator: Adobe Illustrator 27.9.6, SVG Export Plug-In . SVG Version: 9.03 Build 54986)  -->
<svg version="1.1" id="Layer_1" xmlns="http://www.w3.org/2000/svg" xmlns:xlink="http://www.w3.org/1999/xlink" x="0px" y="0px"
	 viewBox="0 0 1200 1000" style="enable-background:new 0 0 1200 1000;" xml:space="preserve">
<style type="text/css">
	.st0{display:none;fill:#D41700;}
	.st1{fill:rgba(255, 000, 000, 1);}
	.st2{fill:#373737;}
</style>
<path class="st0" d="M846.4,813.2H353.6c-8.2,0-15-6.8-15-15v-595c0-8.2,6.8-15,15-15h492.7c8.2,0,15,6.8,15,15v595
	C861.4,806.5,854.6,813.2,846.4,813.2z"/>
<path class="st1" d="M589.5,133.6h20.9v696.3h-20.9V186.8z"/>
<rect x="594.7" y="140" class="st1" width="200" height="60.8"/>
<rect x="400" y="230" class="st1" width="200" height="60.8"/>
<!--<rect x="594.7" y="253.4" class="st1" width="200" height="60.8"/-->
<rect x="594.7" y="320" class="st1" width="200" height="60.8"/>
<!--rect x="594.7" y="384.3" class="st1" width="200" height="60.8"/-->
<rect x="400" y="410" class="st1" width="200" height="60.3"/>
<rect x="594.7" y="500" class="st1" width="200" height="60.8"/>
<rect x="400" y="590" class="st1" width="200" height="60.8"/>
<!--rect x="594.7" y="632.2" class="st1" width="200" height="60.8"/-->
<rect x="594.7" y="680" class="st1" width="200" height="60.8"/>
<!--rect x="594.7" y="751.1" class="st1" width="200" height="60.8"/-->
<rect x="400" y="770" class="st1" width="200" height="60.8"/>
<!--rect x="545.5" y="361.1" class="st1" width="200" height="60.8"/-->
<!--rect x="508" y="404.5" class="st1" width="200" height="60.8"/-->
<!--rect x="400" y="491.3" class="st1" width="200" height="60.8"/-->
<!--<rect x="545.5" y="186.8" class="st1" width="200" height="60.8"/-->
<!--rect x="545.5" y="534.6" class="st1" width="61.6" height="20.8"/-->

<!--path class="st1" d="M677.8,745.4c-3.5-39.3-8.8-78.4-13.3-117.6c-0.2-1.5-0.5-2.8-0.9-4.3c-6.7-21.6-24.6-30.8-60-30.5
	c-37.1,0.3-54.9,8-60.9,34.8c-4.5,39.1-9.8,78.3-13.3,117.6c-2.5,28,13.7,45.7,41.1,47.3c10.8,0.6,21.7-0.4,32.5,0h1.2
	c10.8-0.3,21.7,0.7,32.5,0C664.1,791.1,680.3,773.4,677.8,745.4L677.8,745.4z"/-->
<!--path class="st2" d="M604.5,666.2c-46,2.3-48.3-51.1-1.6-50.7v0.1h1.2v-0.1C649.1,614.6,649.6,666.7,604.5,666.2z"/-->
</svg>
